HIERARCHY
ROOT Root
{
	OFFSET 0.00000 0.00000 0.00000
	CHANNELS 6 Xposition Yposition Zposition Zrotation Xrotation Yrotation
	JOINT Hip
	{
		OFFSET 0 0 0	
		CHANNELS 3 Zrotation Xrotation Yrotation
		JOINT Tummy
		{
			OFFSET 0 0.04 0	
			CHANNELS 3 Zrotation Xrotation Yrotation
			JOINT ChestBottom
			{
				OFFSET 0 0.194 0	
				CHANNELS 3 Zrotation Xrotation Yrotation
				JOINT ChestTop
				{
					OFFSET 0 0.166 0	
					CHANNELS 3 Zrotation Xrotation Yrotation
					JOINT LeftCollar
					{
						OFFSET 0 0.1 0	
						CHANNELS 3 Zrotation Xrotation Yrotation
						JOINT LeftUpperArm
						{
							OFFSET 0.156 -0.02 0.03	
							CHANNELS 3 Zrotation Xrotation Yrotation
							JOINT LeftForeArm
							{
								OFFSET 0.035 -0.27 -0.01	
								CHANNELS 3 Zrotation Xrotation Yrotation
								JOINT LeftHand
								{
									OFFSET 0.01 -0.27 0.01	
									CHANNELS 3 Zrotation Xrotation Yrotation
									End Site
									{
										OFFSET 0 -0.15 0
									}
								}
							}
						}
					}
					JOINT RightCollar
					{
						OFFSET 0 0.1 0	
						CHANNELS 3 Zrotation Xrotation Yrotation
						JOINT RightUpperArm
						{
							OFFSET -0.156 -0.02 0.03	
							CHANNELS 3 Zrotation Xrotation Yrotation
							JOINT RightForeArm
							{
								OFFSET -0.035 -0.27 -0.01	
								CHANNELS 3 Zrotation Xrotation Yrotation
								JOINT RightHand
								{
									OFFSET -0.01 -0.27 0.01	
									CHANNELS 3 Zrotation Xrotation Yrotation
									End Site
									{
										OFFSET 0 -0.15 0
									}
								}
							}
						}
					}
					JOINT Neck
					{
						OFFSET 0 0.1 0	
						CHANNELS 3 Zrotation Xrotation Yrotation
						JOINT Head
						{
							OFFSET 0 0.127 0.03	
							CHANNELS 3 Zrotation Xrotation Yrotation
							End Site
							{
								OFFSET 0 0.127 0.03
							}
						}
					}
				}
			}
		}
	}
	JOINT LeftHip
	{
		OFFSET 0 0 0	
		CHANNELS 3 Zrotation Xrotation Yrotation
		JOINT LeftThigh
		{
			OFFSET 0.088 -0.06 0	
			CHANNELS 3 Zrotation Xrotation Yrotation
			JOINT LeftLowerLeg
			{
				OFFSET 0 -0.39 0.02	
				CHANNELS 3 Zrotation Xrotation Yrotation
				JOINT LeftFootTop
				{
					OFFSET 0 -0.43 -0.02	
					CHANNELS 3 Zrotation Xrotation Yrotation
					JOINT LeftFootFront
					{
						OFFSET 0 -0.07 0.085	
						CHANNELS 3 Zrotation Xrotation Yrotation
						End Site
						{
							OFFSET 0 -0.005 0.09
						}
					}
				}
				JOINT LeftHeel
				{
					OFFSET 0 -0.43 -0.02	
					CHANNELS 3 Zrotation Xrotation Yrotation
					End Site
					{
						OFFSET 0 -0.075 -0.05
					}
				}
			}
		}
	}
	JOINT RightHip
	{
		OFFSET 0 0 0	
		CHANNELS 3 Zrotation Xrotation Yrotation
		JOINT RightThigh
		{
			OFFSET -0.088 -0.06 0	
			CHANNELS 3 Zrotation Xrotation Yrotation
			JOINT RightLowerLeg
			{
				OFFSET 0 -0.39 0.02	
				CHANNELS 3 Zrotation Xrotation Yrotation
				JOINT RightFootTop
				{
					OFFSET 0 -0.43 -0.02	
					CHANNELS 3 Zrotation Xrotation Yrotation
					JOINT RightFootFront
					{
						OFFSET 0 -0.07 0.085	
						CHANNELS 3 Zrotation Xrotation Yrotation
						End Site
						{
							OFFSET 0 -0.005 0.09
						}
					}
				}
				JOINT RightHeel
				{
					OFFSET 0 -0.43 -0.02	
					CHANNELS 3 Zrotation Xrotation Yrotation
					End Site
					{
						OFFSET 0 -0.075 -0.05
					}
				}
			}
		}
	}
}
MOTION
Frames: 20
Frame Time: 0.05
0 0.95902 0 -0 0 -0 -1.1612 3.3732 148.43 -0.75958 0.65444 6.1617 -0.75958 0.65444 6.1617 -0.63337 0.55528 5.1752 -0 0 -0 2.3322 -0.71474 -1.6302 -0.296 -1.436 0.65941 0.60138 -1.8509 -4.0613 -0 0 -0 1.2119 0.73903 -18.851 1.8238 -4.4311 -27.402 -0.25036 -0.26278 -20.742 -1.4049 -3.3258 -9.3527 -1.4049 -3.3258 -9.3527 -1.1612 3.3732 148.43 -0.45066 0.78041 -10.885 -2.5512 0.62747 -21.392 0.28177 0.12951 5.4867 -0 0 8.7305e-07 -0 0 -0 -1.1612 3.3732 148.43 -5.1 -0.41546 -10.268 0.19723 2.2954 -38.851 1.9387 0.82954 -19.378 0 0 -1.5266e-06 -0 0 -0 
0 0.95902 0 -0 0 -0 -1.1458 3.4212 148.45 -0.76918 0.67039 6.1302 -0.76918 0.67039 6.1302 -0.64135 0.56872 5.1487 -0 0 -0 2.3778 -0.71852 -1.5979 -0.31514 -1.4425 0.77801 0.59435 -1.8391 -4.1424 -0 0 -0 1.2283 0.6936 -18.801 1.8093 -4.4411 -27.448 -0.29464 -0.26538 -20.756 -1.4023 -3.3186 -9.3882 -1.4023 -3.3186 -9.3882 -1.1458 3.4212 148.45 -0.50295 0.77512 -10.883 -2.5661 0.66556 -21.399 0.31461 0.16807 5.4745 -0.013599 -0.019118 0.00065658 -0 0 -0 -1.1458 3.4212 148.45 -5.1338 -0.35775 -10.281 0.19114 2.2639 -38.854 1.9432 0.8697 -19.379 0.022336 0.039057 -0.0042735 -0 0 -0 
0 0.95901 0 -0 0 -0 -1.1385 3.4564 148.47 -0.7824 0.67227 6.119 -0.7824 0.67227 6.119 -0.65245 0.57038 5.1394 -0 0 -0 2.4331 -0.67049 -1.617 -0.36782 -1.4254 0.90174 0.58335 -1.8806 -4.1 -0 0 -0 1.2251 0.71472 -18.83 1.8298 -4.4658 -27.464 -0.30644 -0.27814 -20.796 -1.3969 -3.2975 -9.4572 -1.3969 -3.2975 -9.4572 -1.1385 3.4564 148.47 -0.5189 0.83669 -10.885 -2.5548 0.6618 -21.42 0.30913 0.12702 5.4724 -0.01431 -0.020248 0.00072723 -0 0 -0 -1.1385 3.4564 148.47 -5.1632 -0.31196 -10.294 0.20643 2.2951 -38.858 2.0041 0.87175 -19.388 0.064075 -0.0082237 -5.5654e-05 -0 0 -0 
0 0.95901 0 -0 0 -0 -1.1498 3.4585 148.5 -0.80421 0.63584 6.0932 -0.80421 0.63584 6.0932 -0.67106 0.53991 5.1176 -0 0 -0 2.4952 -0.59314 -1.5607 -0.43595 -1.3911 1.0101 0.61156 -1.9093 -4.1384 -0 0 -0 1.2656 0.80404 -18.825 1.8395 -4.5005 -27.556 -0.35201 -0.28211 -20.745 -1.3771 -3.2479 -9.5001 -1.3771 -3.2479 -9.5001 -1.1498 3.4585 148.5 -0.52857 0.88045 -10.898 -2.5476 0.65112 -21.457 0.31098 0.073219 5.4919 -0.011129 -0.017229 0.00075784 -0 0 -0 -1.1498 3.4585 148.5 -5.1776 -0.29668 -10.306 0.21582 2.3253 -38.86 2.0891 0.80498 -19.403 0.04121 0.029485 0.0034538 -0 0 -0 
0 0.959 0 -0 0 -0 -1.158 3.4594 148.53 -0.80704 0.59178 6.0745 -0.80704 0.59178 6.0745 -0.67376 0.5029 5.102 -0 0 -0 2.5107 -0.46422 -1.5251 -0.48646 -1.4258 1.0715 0.6335 -1.8967 -4.1252 -0 0 -0 1.264 0.91767 -18.847 1.8441 -4.5037 -27.589 -0.37314 -0.2714 -20.748 -1.3844 -3.2009 -9.5282 -1.3844 -3.2009 -9.5282 -1.158 3.4594 148.53 -0.5584 0.9047 -10.912 -2.5232 0.67244 -21.475 0.32064 0.015812 5.4978 -0.0046146 -0.0081615 0.00063618 -0 0 -0 -1.158 3.4594 148.53 -5.1929 -0.27991 -10.324 0.23515 2.3635 -38.848 2.1658 0.77077 -19.42 -0.027261 0.023426 5.9061e-05 -0 0 -0 
0 0.95899 0 -0 0 -0 -1.1736 3.4604 148.57 -0.81656 0.58613 6.0537 -0.81656 0.58613 6.0537 -0.68182 0.4982 5.0845 -0 0 -0 2.4859 -0.44722 -1.508 -0.43714 -1.4073 1.1234 0.55683 -1.9247 -4.0848 -0 0 -0 1.2384 0.9648 -18.897 1.933 -4.4673 -27.62 -0.37321 -0.37679 -20.648 -1.3787 -3.2158 -9.5414 -1.3787 -3.2158 -9.5414 -1.1736 3.4604 148.57 -0.57785 0.84466 -10.918 -2.5345 0.76821 -21.493 0.33896 -0.028498 5.492 -0.011062 -0.0052793 8.9722e-05 -0 0 -0 -1.1736 3.4604 148.57 -5.2267 -0.25606 -10.338 0.23011 2.3944 -38.851 2.2063 0.77755 -19.434 -0.049824 -0.0040375 0.0016893 -0 0 -0 
0 0.95897 0 -0 0 -0 -1.203 3.431 148.59 -0.8174 0.57589 6.0325 -0.8174 0.57589 6.0325 -0.68261 0.48958 5.0668 -0 0 -0 2.4087 -0.46448 -1.4384 -0.41944 -1.3961 1.1803 0.6013 -1.9346 -4.1709 -0 0 -0 1.2158 0.99503 -18.914 1.9711 -4.4339 -27.589 -0.40582 -0.42284 -20.673 -1.3701 -3.2203 -9.5286 -1.3701 -3.2203 -9.5286 -1.203 3.431 148.59 -0.54813 0.82842 -10.916 -2.574 0.77811 -21.512 0.3485 -0.069648 5.4873 -0.0072136 -0.0026013 -0.00096396 -0 0 -0 -1.203 3.431 148.59 -5.2331 -0.26464 -10.364 0.20672 2.4215 -38.848 2.2134 0.76177 -19.43 -0.040183 -0.042819 0.0047965 -0 0 -0 
0 0.95896 0 -0 0 -0 -1.236 3.3654 148.61 -0.81869 0.56409 6.016 -0.81869 0.56409 6.016 -0.68378 0.47966 5.0529 -0 0 -0 2.3558 -0.50886 -1.3783 -0.39639 -1.3935 1.1964 0.56408 -1.9291 -4.1562 -0 0 -0 1.2164 0.99958 -18.889 2.0184 -4.4405 -27.658 -0.45487 -0.42421 -20.637 -1.3468 -3.2236 -9.5067 -1.3468 -3.2236 -9.5066 -1.236 3.3654 148.61 -0.50266 0.79067 -10.917 -2.6123 0.78008 -21.552 0.36382 -0.11038 5.5059 -0.003592 -0.0099805 0.00080489 -0 0 -0 -1.236 3.3654 148.61 -5.2289 -0.31356 -10.377 0.18557 2.4513 -38.837 2.2151 0.71104 -19.445 0.048951 -0.023108 0.0044558 -0 0 -0 
0 0.95895 0 -0 0 -0 -1.2702 3.3211 148.63 -0.82614 0.55188 5.996 -0.82614 0.55188 5.996 -0.69014 0.46944 5.0361 -0 0 -0 2.3117 -0.52396 -1.3161 -0.36068 -1.402 1.1989 0.53642 -1.9112 -4.1307 -0 0 -0 1.2339 1.0114 -18.865 2.0322 -4.4502 -27.692 -0.47466 -0.42851 -20.626 -1.318 -3.2127 -9.4856 -1.318 -3.2127 -9.4856 -1.2702 3.3211 148.63 -0.50111 0.77093 -10.936 -2.6249 0.79087 -21.585 0.38991 -0.15969 5.5352 -0.0092183 -0.0033794 0.004766 -0 0 -0 -1.2702 3.3211 148.63 -5.2528 -0.35774 -10.397 0.14848 2.4672 -38.838 2.311 0.69123 -19.444 0.043837 0.020883 0.0025121 -0 0 -0 
0 0.95895 0 -0 0 -0 -1.2909 3.2918 148.64 -0.82773 0.55832 5.9878 -0.82773 0.55832 5.9878 -0.69144 0.47485 5.0292 -0 0 -0 2.2843 -0.56455 -1.3131 -0.31339 -1.3978 1.2232 0.47796 -1.9334 -4.0935 -0 0 -0 1.2399 0.97928 -18.898 1.9929 -4.422 -27.607 -0.378 -0.41346 -20.713 -1.3092 -3.213 -9.4841 -1.3092 -3.213 -9.4841 -1.2909 3.2918 148.64 -0.48293 0.76463 -10.952 -2.6439 0.80541 -21.588 0.40267 -0.20669 5.5525 -0.0053062 -0.0022379 0.0041425 -0 0 -0 -1.2909 3.2918 148.64 -5.2665 -0.3806 -10.42 0.17287 2.5039 -38.828 2.3794 0.65282 -19.437 0.053708 -0.0071339 -0.00095172 -0 0 -0 
0 0.95894 0 -0 0 -0 -1.3106 3.2687 148.65 -0.83948 0.55989 5.9799 -0.83948 0.55989 5.9799 -0.7013 0.47624 5.0226 -0 0 -0 2.3295 -0.59202 -1.3689 -0.36179 -1.417 1.3142 0.49815 -1.9173 -4.0891 -0 0 -0 1.2675 0.99823 -18.921 2.017 -4.478 -27.626 -0.36082 -0.39149 -20.671 -1.285 -3.2054 -9.4831 -1.285 -3.2054 -9.4831 -1.3106 3.2687 148.65 -0.45652 0.7666 -10.962 -2.6456 0.81087 -21.609 0.3923 -0.2571 5.5727 -0.0085913 -0.0028083 0.0064952 -0 0 -0 -1.3106 3.2687 148.65 -5.2759 -0.37579 -10.444 0.19033 2.5158 -38.824 2.4496 0.58952 -19.432 0.055915 -0.021975 0.0014573 -0 0 -0 
0 0.95894 0 -0 0 -0 -1.343 3.2306 148.67 -0.85528 0.52482 5.9679 -0.85528 0.52482 5.9679 -0.71483 0.44688 5.0125 -0 0 -0 2.393 -0.55588 -1.3753 -0.38011 -1.4765 1.3777 0.53767 -1.826 -4.1271 -0 0 -0 1.3188 1.0867 -18.86 2.0299 -4.55 -27.736 -0.38651 -0.36636 -20.603 -1.247 -3.1424 -9.4722 -1.247 -3.1424 -9.4722 -1.343 3.2306 148.67 -0.44864 0.74733 -10.979 -2.6864 0.82048 -21.633 0.42868 -0.28809 5.6038 -0.0019787 -0.0044912 0.00778 -0 0 -0 -1.343 3.2306 148.67 -5.2967 -0.3823 -10.454 0.24489 2.5081 -38.828 2.4877 0.50482 -19.437 0.057474 -0.0086543 0.0032194 -0 0 -0 
0 0.95894 0 -0 0 -0 -1.3744 3.2004 148.69 -0.85656 0.51697 5.9531 -0.85656 0.51697 5.9531 -0.71597 0.44028 5.0001 -0 0 -0 2.3845 -0.6056 -1.3506 -0.41957 -1.5266 1.4013 0.59641 -1.8648 -4.1087 -0 0 -0 1.3308 1.0747 -18.815 1.9651 -4.5255 -27.733 -0.30232 -0.36882 -20.667 -1.2486 -3.1155 -9.4506 -1.2486 -3.1155 -9.4506 -1.3744 3.2004 148.69 -0.46794 0.73246 -11.008 -2.6669 0.77148 -21.648 0.41295 -0.27305 5.6385 -0.0045148 0.0018616 0.0033271 -0 0 -0 -1.3744 3.2004 148.69 -5.3118 -0.40428 -10.477 0.27542 2.4704 -38.824 2.5081 0.47856 -19.435 -0.044657 -0.026063 0.0034025 -0 0 -0 
0 0.95894 0 -0 0 -0 -1.4085 3.1667 148.71 -0.85509 0.49725 5.9346 -0.85509 0.49725 5.9346 -0.71488 0.42369 4.9846 -0 0 -0 2.3176 -0.60095 -1.3621 -0.34913 -1.5124 1.4243 0.5486 -1.9443 -4.0708 -0 0 -0 1.3426 1.1158 -18.843 1.9468 -4.5203 -27.681 -0.26676 -0.43955 -20.685 -1.2563 -3.1051 -9.4061 -1.2563 -3.1051 -9.4061 -1.4085 3.1667 148.71 -0.50425 0.70823 -11.039 -2.6771 0.7867 -21.637 0.4563 -0.28744 5.6373 -0.00024184 0.0063752 0.0059748 -0 0 -0 -1.4085 3.1667 148.71 -5.3295 -0.43295 -10.503 0.30695 2.439 -38.824 2.4287 0.46783 -19.435 -0.053176 -0.025281 0.00023197 -0 0 -0 
0 0.95894 0 -0 0 -0 -1.4326 3.1213 148.73 -0.84264 0.46347 5.9232 -0.84264 0.46347 5.9232 -0.70466 0.3952 4.975 -0 0 -0 2.3011 -0.56667 -1.38 -0.42365 -1.5434 1.4542 0.62765 -1.9095 -4.0711 -0 0 -0 1.3244 1.196 -18.796 1.9673 -4.5413 -27.705 -0.34002 -0.49426 -20.672 -1.2552 -3.0944 -9.3484 -1.2552 -3.0944 -9.3484 -1.4326 3.1213 148.73 -0.50141 0.69076 -11.062 -2.6843 0.80949 -21.65 0.48918 -0.3277 5.6583 0.0015771 0.006957 0.0056008 -0 0 -0 -1.4326 3.1213 148.73 -5.3245 -0.46287 -10.522 0.34579 2.4147 -38.848 2.3379 0.4429 -19.416 -0.030317 0.028544 -0.0018797 -0 0 -0 
0 0.95894 0 -0 0 -0 -1.4633 3.0681 148.77 -0.84515 0.40713 5.9037 -0.84515 0.40713 5.9037 -0.70717 0.34788 4.9587 -0 0 -0 2.3282 -0.49032 -1.3633 -0.41011 -1.583 1.4355 0.56447 -1.9176 -4.0538 -0 0 -0 1.3768 1.2664 -18.792 1.9661 -4.5385 -27.686 -0.42633 -0.5032 -20.651 -1.2372 -3.0502 -9.3306 -1.2372 -3.0502 -9.3306 -1.4633 3.0681 148.77 -0.49086 0.65466 -11.09 -2.7104 0.84092 -21.677 0.5321 -0.36524 5.6801 -0.0047254 0.010318 0.0067288 -0 0 -0 -1.4633 3.0681 148.77 -5.3327 -0.50251 -10.557 0.33335 2.4597 -38.845 2.3767 0.44773 -19.426 -0.041281 0.0051984 0.003092 -0 0 -0 
0 0.95894 0 -0 0 -0 -1.5178 2.9867 148.81 -0.84959 0.32348 5.8947 -0.84959 0.32348 5.8947 -0.71149 0.27763 4.9512 -0 0 -0 2.3587 -0.38362 -1.3516 -0.39945 -1.5695 1.4024 0.50526 -1.9054 -4.0718 -0 0 -0 1.4453 1.354 -18.848 1.9567 -4.5358 -27.662 -0.4453 -0.531 -20.582 -1.2169 -2.9814 -9.3298 -1.2169 -2.9814 -9.3298 -1.5178 2.9867 148.81 -0.47902 0.57888 -11.139 -2.7182 0.86927 -21.666 0.54258 -0.40624 5.6855 0.0007504 0.0050062 0.011677 -0 0 -0 -1.5178 2.9867 148.81 -5.3489 -0.57621 -10.597 0.34644 2.5024 -38.846 2.3792 0.42036 -19.426 0.021141 0.028873 0.00072649 -0 0 -0 
0 0.95894 0 -0 0 -0 -1.5893 2.8703 148.84 -0.85481 0.22026 5.8905 -0.85481 0.22026 5.8905 -0.71659 0.19094 4.9478 -0 0 -0 2.3975 -0.27795 -1.3225 -0.34642 -1.5532 1.351 0.4459 -1.9528 -4.0707 -0 0 -0 1.5274 1.4381 -18.924 1.8998 -4.4843 -27.581 -0.42329 -0.54427 -20.587 -1.2021 -2.9006 -9.3224 -1.2021 -2.9006 -9.3225 -1.5893 2.8703 148.84 -0.47143 0.46784 -11.153 -2.6907 0.88813 -21.674 0.5311 -0.45425 5.6961 0.001904 0.00091897 0.0091755 -0 0 -0 -1.5893 2.8703 148.84 -5.3562 -0.6878 -10.63 0.36375 2.4599 -38.843 2.3897 0.45263 -19.43 0.032285 -0.0047312 -0.0038775 -0 0 -0 
0 0.95893 0 -0 0 -0 -1.6389 2.7717 148.84 -0.85973 0.095069 5.9122 -0.85973 0.095068 5.9122 -0.72158 0.085828 4.9661 -0 0 -0 2.4692 -0.10209 -1.3733 -0.28425 -1.4968 1.3599 0.47225 -2.0503 -4.0799 -0 0 -0 1.6391 1.6011 -19.039 1.8371 -4.4376 -27.568 -0.42864 -0.54815 -20.541 -1.1503 -2.734 -9.3403 -1.1503 -2.734 -9.3403 -1.6389 2.7717 148.84 -0.47181 0.37423 -11.145 -2.6704 0.91339 -21.695 0.53993 -0.49237 5.7166 0.00080511 -0.001186 0.0079422 -0 0 -0 -1.6389 2.7717 148.84 -5.3467 -0.78521 -10.648 0.34129 2.4218 -38.827 2.4206 0.47214 -19.443 -0.031009 -0.051045 0.0015679 -0 0 -0 
0 0.95893 0 -0 0 -0 -1.6805 2.6822 148.83 -0.86015 -0.065483 5.9324 -0.86015 -0.065483 5.9324 -0.72305 -0.049025 4.9833 -0 0 -0 2.5562 0.19646 -1.3528 -0.23194 -1.4432 1.3994 0.4565 -2.0619 -4.1253 -0 0 -0 1.7452 1.8822 -19.119 1.8037 -4.4145 -27.661 -0.47345 -0.5343 -20.573 -1.0422 -2.363 -9.3209 -1.0422 -2.363 -9.3209 -1.6805 2.6822 148.83 -0.43676 0.30006 -11.141 -2.7 0.85451 -21.702 0.5392 -0.46132 5.7358 -0.00069665 -0.0021931 0.0027464 -0 0 -0 -1.6805 2.6822 148.83 -5.3311 -0.85689 -10.655 0.37815 2.3688 -38.825 2.3294 0.43134 -19.436 -0.0065407 -0.057641 0.0043449 -0 0 -0 
